<svg class="s-h__logo--svg" width="468.72" height="80" viewBox="0 0 460 79" xmlns="http://www.w3.org/2000/svg">  <g transform="matrix(1.2268 0 0 -1.2344 0 153.98)">    <g transform="matrix(.05129 0 0 .051305 0 60.74)">      <path d="m6037.1 1140.4c0-38.52-32.87-79.85-61.99-116.48-51.66-66.686-191.62-228.25-286.49-307.16-30.06-25.371-70.45-47.91-110.84-47.91-56.36 0-84.55 40.39-84.55 89.238 0 57.293 77.03 238.59 142.78 367.28 15.97 30.99 34.76 59.18 65.76 77.96 48.85 30.06 111.78 44.16 173.77 44.16 74.2 0 161.56-35.71 161.56-107.09" fill="#ed1c24"></path>      <path d="m425.68 726.64h61.875v83.445h-487.55v-83.445h60.012c30 0 47.812-7.5 47.812-30v-530.68c0-46.894-4.679-75-47.812-75h-58.137v-77.832h466.93v77.832h-32.805c-28.133 0-40.34 17.813-40.34 68.438v498.78c0 45.957 6.59 68.457 30.02 68.457zm-43.137-5.637c-15-12.176-15-30.937-15-62.82v-497.85c0-31.875 0-50.625 15-62.832v-5.6055s-3.75-0.9375-9.375-0.9375c-30 0-33.75 22.5-33.75 61.856v512.88c0 39.386 3.75 61.886 33.75 61.886 5.625 0 9.375-0.937 9.375-0.937v-5.637" fill="#231f20"></path>      <path d="m2081.2 583.18c-180.97 0-320.65-125.64-320.65-291.6 0-182.81 143.45-291.58 320.65-291.58 165.95 0 322.53 115.31 322.53 298.14 0 165.96-155.63 285.04-322.53 285.04zm168.22-564.59c117.22 39.512 208.69 139.82 208.69 279.55 0 126.98-91.12 226.52-208.68 266.27l-3.86-8.43c106.54-44.265 186.29-139.04 186.29-257.84 0-130.7-80.02-226.9-186.28-271.13l3.84-8.4179zm-189.79 39.531c-43.13 8.4375-73.13 37.52-73.13 88.145v290.64c0 46.875 30 83.457 73.13 91.895l2.82-6.563c-28.13-15.019-47.81-46.894-47.81-85.332v-290.64c0-42.207 19.68-66.582 47.81-81.582l-2.82-6.5625zm113.46 88.145c0-49.688-30-75.02-66.57-84.376-36.58 9.3555-65.61 34.688-65.61 84.376v291.46c0 45.012 27.16 78.887 65.61 89.2 41.25-10.313 66.57-45.02 66.57-90.02v-290.64" fill="#231f20"></path>      <path d="m5705.1 570.06v-409.73c0-31.875 0-50.625 15.02-62.832v-5.6055s-3.75-0.9375-9.38-0.9375c-30 0-33.77 22.5-33.77 61.856v417.25h-297.25v-77.832h15.95c53.43 0 65.62-6.563 65.62-63.75v-285.96c0-36.563-1.87-51.563-43.13-51.563h-40.32v-77.832h448.18v77.832h-48.71c-23.44 0-45.94 13.106-45.94 58.106v421h-26.27" fill="#231f20"></path>      <path d="m5307.5 90.957c-23.44 0-45.94 13.106-45.94 58.106v343.16h81.57v77.832h-81.57v187.63c-8.52-4.687-17.28-9.464-26.25-14.293v-173.34h-28.14v158.85c-73.93-38.965-152.81-78.887-215.69-101.48v-57.367h-84.34v-77.832h84.34v-326.27c0-119.08 65.68-165.96 192.26-165.96 68.45 0 135.02 11.25 172.52 19.688v71.27h-48.76zm-57.19 0.9375s-3.75-0.9375-9.38-0.9375c-29.99 0-33.76 22.5-33.76 61.856v339.41h28.14v-331.9c0-31.875-0.02-50.625 15-62.832v-5.6055" fill="#231f20"></path>      <path d="m7277.1 90.957c-23.44 0-45.95 13.106-45.95 58.106v284.1c0 74.531-31.77 122.77-94.48 141.37l-4-8.437c47.96-22.742 72.22-67.793 72.22-132.93v-272.83c0-31.875 0-50.625 15.01-62.832v-5.6055s-3.74-0.9375-9.37-0.9375c-29.99 0-33.76 22.5-33.76 61.856v280.35c0 97.5-54.38 150.02-161.27 150.02-65.81 0-124.67-22.985-178.62-56.832v43.707h-24.38v-59.938c-9.03-6.348-17.93-12.949-26.7-19.769v79.707h-291.33v-77.832h10.32c46.88 0 68.45-6.563 68.45-58.125v-289.71c0-50.645-20.63-53.438-74.08-53.438h-9.37v-77.832h395.4v77.832c-23.44 0-45 13.106-45 58.106v203.48c0 62.813 31.85 96.563 90 114.38 40.31-15 45-49.687 45-88.125v-227.83c0-44.082-8.44-60-56.26-60h-12.19v-77.832h404.11v77.832h-33.75zm-463.18 257.81v-188.44c0-31.875 0-50.625 15-62.832v-5.6055s-3.75-0.9375-9.37-0.9375c-30 0-33.75 22.5-33.75 61.856v197.85c0 39.375 13.12 65.625 37.5 87.188 14.07 12.187 32.81 23.437 56.26 30l2.82-6.563c-43.13-22.519-68.46-56.23-68.46-112.52" fill="#231f20"></path>      <path d="m1231.7 149.06v284.1c0 74.531-31.77 122.77-94.49 141.37l-4-8.437c47.97-22.742 72.23-67.793 72.23-132.93v-272.83c0-31.875 0-50.625 15.01-62.832v-5.6055s-3.74-0.9375-9.37-0.9375c-30 0-33.77 22.5-33.77 61.856v280.35c0 97.5-54.37 150.02-161.27 150.02-65.804 0-124.66-22.985-178.61-56.832v43.707h-24.383v-59.938c-9.035-6.348-17.93-12.949-26.699-19.769v79.707h-291.33v-77.832h10.32c46.875 0 68.449-6.563 68.449-58.125v-289.71c0-50.645-20.636-53.438-74.082-53.438h-9.375v-77.832h395.4v77.832c-23.438 0-45 13.106-45 58.106v203.48c0 62.813 31.855 96.563 90 114.38 40.312-15 45.011-49.687 45.011-88.125v-227.83c0-44.082-8.449-60-56.269-60h-12.188v-77.832h370.36v77.832c-23.44 0-45.95 13.106-45.95 58.106zm-417.24 199.71v-188.44c0-31.875 0-50.625 15-62.832v-5.6055s-3.75-0.9375-9.363-0.9375c-30 0-33.75 22.5-33.75 61.856v197.85c0 39.375 13.113 65.625 37.5 87.188 14.07 12.187 32.812 23.437 56.258 30l2.824-6.563c-43.137-22.519-68.469-56.23-68.469-112.52" fill="#231f20"></path>      <path d="m4218.6 91.016c-23.44 0-45.95 13.105-45.95 58.105v308.89c0 52.207-27.74 98.086-92.27 116.58l-4-8.438c48.65-21.855 70.02-62.402 70.02-108.14v-297.62c0-31.875 0-50.625 15-62.832v-5.6055s-3.74-0.9375-9.38-0.9375c-29.98 0-33.75 22.5-33.75 61.855v305.14c0 68.027-46.89 125.23-161.27 125.23-61.25 0-123.01-32.679-172.19-65.254-13.45 25.41-36.98 45.703-72.56 56.543l-4-8.437c29.15-13.914 47.85-35.43 57.61-61.028-7.65-5.363-14.91-10.613-21.69-15.574-16.9 74.063-88.14 93.75-148.14 93.75-61.86 0-121.63-25.765-173.64-57.812v44.629h-24.38v-60.446c-9.32-6.336-18.36-12.773-27.02-19.203v79.707h-279.4v-77.832h10.32c47.82 0 56.26-14.062 56.26-51.582v-296.25c0-50.644-20.64-53.437-74.08-53.437h-9.38v-77.832h386.31v77.832c-18.99 0-35.63 18.535-35.63 58.105v199.71c0 54.395 21.56 88.145 77.81 111.58 25.32-15 26.26-49.687 26.26-90.937v-218.46c0-48.77-14.08-60-46.89-60v-77.832h352.54v77.832h0.04c-19.28 0-36.63 17.851-36.63 58.105v199.71c0 54.395 22.52 88.145 78.79 111.58 25.3-15 26.23-49.687 26.23-90.937v-218.46c0-48.77-14.06-60-46.87-60v-77.832h373.18v77.832h-11.25zm-819.49 260.63v-191.25c0-31.875 0-50.625 15.02-62.832v-5.6055s-3.75-0.9375-9.38-0.9375c-29.99 0-33.76 22.5-33.76 61.855v198.77c0 55.332 34.72 95.644 85.35 109.71l2.82-6.563c-45-28.125-60.05-59.062-60.05-103.14zm373.14 0v-191.25c0-31.875 0-50.625 15.02-62.832v-5.6055s-3.75-0.9375-9.37-0.9375c-30 0-33.77 22.5-33.77 61.855v198.77c0 55.332 34.73 95.644 85.35 109.71l2.83-6.563c-45-28.125-60.06-59.062-60.06-103.14" fill="#231f20"></path>      <path d="m3046 572.54v-225.62h24.38v215.64c-4.89 3.078-13.73 6.668-24.38 9.98" fill="#231f20"></path>      <path d="m2796.1 507.36v62.696h-24.38v-96.625c-6.38-9.704-12.46-19.457-18.28-29.02l-9.38-15.176 0.01 140.82h-294.16v-77.832h15.95c53.44 0 65.62-6.563 65.62-63.75v-285.96c0-36.563-1.87-51.563-43.13-51.563h-40.31v-77.832h472.29v77.832h-75.92c-23.44 0-45.95 13.106-45.95 58.106v133.16c0 60 28.11 97.5 59.99 108.77 24.38-6.582 37.51-19.707 43.12-44.082h122.84v215.64c-17.57 9.101-52.52 20.625-89.07 20.625-62.76 0-105.77-33.891-139.24-75.821zm-23.91-217.64v-129.4c0-31.875 0-50.625 15.02-62.832v-5.6055s-3.74-0.9375-9.38-0.9375c-29.99 0-33.77 22.5-33.77 61.856v135.98c0 68.438 46.87 105 81.56 116.27l2.83-6.563c-34.69-21.562-56.26-58.144-56.26-108.77" fill="#231f20"></path>      <path d="m6122.3 583.18c-180.97 0-320.66-125.64-320.66-291.6 0-182.81 143.45-291.58 320.66-291.58 165.94 0 322.53 115.31 322.53 298.14 0 165.96-155.64 285.04-322.53 285.04zm168.22-564.59c117.22 39.512 208.68 139.82 208.68 279.55 0 126.98-91.11 226.52-208.67 266.27l-3.87-8.43c106.54-44.265 186.29-139.04 186.29-257.84 0-130.7-80.02-226.9-186.27-271.13l3.84-8.4179zm-189.8 39.531c-43.12 8.4375-73.12 37.52-73.12 88.145v290.64c0 46.875 30 83.457 73.12 91.895l2.83-6.563c-28.14-15.019-47.81-46.894-47.81-85.332v-290.64c0-42.207 19.67-66.582 47.81-81.582l-2.83-6.5625zm113.46 88.145c0-49.688-30-75.02-66.57-84.376-36.57 9.3555-65.61 34.688-65.61 84.376v291.46c0 45.012 27.16 78.887 65.61 89.2 41.26-10.313 66.57-45.02 66.57-90.02v-290.64" fill="#231f20"></path>      <path d="m1927.4 838.81v-164.69h24.39v150.3c-6.75 4.945-14.99 9.769-24.39 14.383" fill="#231f20"></path>      <path d="m1396.7 618.8v-48.746h-89.02v-77.832h89.02v-349.71c0-36.563-1.87-51.563-43.13-51.563h-54.33v-77.832h446.31v77.832h-32.82c-23.44 0-45.95 13.106-45.95 58.106v343.16h68.45v77.832h-68.45v150.02c0 40.313 13.12 74.063 42.2 88.125 11.25-4.687 28.13-18.75 28.13-45v-89.074h168.76v154.71c-42.2 30.938-142.51 57.199-223.16 57.199-187.5 0-286.01-105.96-286.01-267.23zm258.83-526.91s-3.74-0.9375-9.38-0.9375c-29.99 0-33.76 22.5-33.76 61.856v339.41h28.13v-331.9c0-31.875 0-50.625 15.01-62.832v-5.6055zm-15.01 628.18v-150.02h-28.13v150.02c0 47.813 24.39 90.008 70.32 97.5l2.83-6.562c-33.72-19.121-45.02-52.516-45.02-90.938" fill="#231f20"></path>      <path d="m4917.4 90.957c-23.44 0-45.98 13.106-45.98 58.106v249.41c0 97.617-55.54 144.06-121.51 165.94l-3.8-8.43c55.65-24.714 99.06-71.199 99.06-157.51v-238.14c0-31.875 0.02-50.625 15.04-62.832v-5.6055s-3.75-0.9375-9.38-0.9375c-29.99 0-33.76 22.5-33.76 61.856h0.01v245.66c0 166.89-162.22 184.71-261.59 184.71-113.45 0-196.9-25.313-268.15-63.75v-114.38h171.12v48.73c0 54.668 54.31 56.797 54.31 56.797l2.68-5.813c-18.24-8.425-30.28-24.695-30.28-50.984v-48.73h24.38v48.73c0 33.984 21.12 50.078 48.4 55.996 33.73-9.336 46.3-35.644 46.3-58.808v-104.06l-135.96-11.25c-132.2-11.269-232.53-45.937-232.53-171.58 0-114.39 88.99-164.08 197.33-164.08 126.37 0 177.72 57.188 177.72 57.188s20.93-44.062 83.88-44.062h244.29v77.832h-21.58zm-385.78-1.9336c-37.79 0-65.2 30.813-65.2 93.809 0 45.527 20.24 85.977 63.01 99.492l3.03-6.562c-31.13-19.473-37.89-59.18-37.89-92.93 0-47.519 13.96-76.746 37.05-88.34v-5.4688zm72.63 66.622c0-30.743-17-50.782-41.72-60.372-25.25 11.426-41.72 40.743-41.72 87.559 0 73.711 34.42 96.016 68.82 98.77l14.62 1.171v-127.13" fill="#231f20"></path>    </g>  </g></svg>